<svg width="128" height="128" viewBox="0 0 128 128" fill="none"  stroke="currentColor" xmlns="http://www.w3.org/2000/svg">
<path d="M8.57716 32.0007C-9.08647 62.592 1.40931 101.759 32.0007 119.423C62.592 137.086 101.759 126.591 119.423 95.9993C137.086 65.408 126.591 26.2408 95.9993 8.57716C65.408 -9.08646 26.2408 1.40932 8.57716 32.0007ZM23.6808 40.7045C36.4806 18.433 65.024 10.8811 87.2955 23.6809C109.567 36.4806 117.119 65.024 104.319 87.2955C91.5194 109.567 62.976 117.119 40.7045 104.319C18.433 91.5194 10.8811 62.976 23.6808 40.7045Z" fill="#cccccc"/>
<path d="M64.2385 98.8045C45.1521 98.8045 29.6795 83.3319 29.6795 64.2455C29.6795 45.1591 45.1521 29.6865 64.2385 29.6865C83.3249 29.6865 98.7975 45.1591 98.7975 64.2455C98.7975 83.3319 83.3249 98.8045 64.2385 98.8045Z" fill="#cccccc"/>
<defs>
</defs>
</svg>
